<svg version="1.1" id="Layer_1" xmlns="http://www.w3.org/2000/svg" xmlns:xlink="http://www.w3.org/1999/xlink" x="0px" y="0px"
	 width="100%" viewBox="0 0 496 496" enable-background="new 0 0 496 496" xml:space="preserve">
<path fill="#000000" opacity="1.000000" stroke="none" 
	d="
M217.458466,192.554565 
	C201.399994,197.657196 185.718735,202.631363 170.104691,207.584213 
	C169.335938,209.751480 170.494370,211.321747 171.248444,212.914764 
	C178.303940,227.820007 185.319427,242.745209 192.519043,257.580902 
	C198.229874,269.348816 196.784500,278.079773 186.875214,286.930908 
	C169.016602,302.882477 139.700104,294.317230 134.482574,272.379181 
	C133.664337,268.938721 133.797882,265.967987 135.329514,262.756256 
	C142.784897,247.122803 150.093994,231.419434 157.420364,215.724731 
	C158.535873,213.335068 159.470764,210.861069 160.391953,208.658585 
	C159.415787,206.705093 157.807846,206.701370 156.427185,206.218658 
	C153.447418,205.176895 150.424515,204.206161 147.566498,202.887299 
	C145.719360,202.034927 143.022034,201.037109 144.342819,198.235733 
	C145.482773,195.817902 147.789032,196.919525 149.639206,197.619812 
	C158.445465,200.953003 166.870651,199.983368 175.202240,195.829132 
	C185.934128,190.478058 196.766251,185.326599 207.585556,180.152603 
	C216.599487,175.841965 225.542282,170.963226 235.529343,169.668213 
	C242.796509,168.725861 245.731674,165.159805 246.798492,158.407410 
	C247.247238,155.567032 246.520874,150.769089 251.375580,150.845062 
	C255.814743,150.914536 255.330780,155.462830 255.697113,158.183395 
	C256.683472,165.508743 260.373535,168.411942 267.706879,169.941391 
	C285.818878,173.718796 301.496094,183.794296 318.131317,191.384628 
	C321.916534,193.111740 325.640106,194.973373 329.411835,196.730606 
	C337.207703,200.362656 345.139984,200.490936 353.205566,197.660339 
	C354.859039,197.080078 356.937897,195.860580 358.038574,198.182083 
	C359.229370,200.693665 356.997375,201.690491 355.256927,202.657639 
	C351.354065,204.826447 346.957489,205.816879 342.166534,207.469635 
	C345.254425,214.123199 348.040924,220.298630 350.971802,226.404785 
	C356.161987,237.218002 360.881744,248.309814 366.843353,258.684570 
	C372.433105,268.412292 369.692383,276.554840 363.481232,283.849365 
	C356.164795,292.441956 346.253235,296.291382 334.883057,294.796021 
	C322.117096,293.117035 313.002075,286.462280 308.676361,273.963165 
	C307.249176,269.839386 307.412415,265.939117 309.343048,261.895782 
	C316.950226,245.964127 324.392334,229.953476 331.857117,213.954147 
	C332.753937,212.031952 334.089813,210.210281 333.802856,207.748810 
	C320.670776,203.610596 307.520203,199.496613 294.389862,195.318954 
	C284.563385,192.192505 274.737793,189.179535 264.470703,187.671249 
	C260.205566,187.044693 258.212891,187.618866 258.223541,192.393188 
	C258.312439,232.224884 258.321106,272.056946 258.236176,311.888611 
	C258.227386,316.013092 260.035095,317.445770 263.863983,317.753265 
	C271.028442,318.328644 278.034088,319.773010 284.473907,323.143921 
	C287.896515,324.935455 291.350922,326.865051 291.284576,331.530884 
	C291.221130,335.992645 287.844879,337.735779 284.548279,339.389191 
	C273.806122,344.776794 262.221436,345.488892 250.489578,345.426971 
	C239.580338,345.369385 228.893661,344.304077 218.977448,339.239716 
	C215.608917,337.519379 212.219833,335.439972 212.298096,331.276886 
	C212.374969,327.186340 215.673187,325.037872 219.079544,323.343842 
	C225.418625,320.191284 232.162003,318.317688 239.169891,317.822937 
	C243.108765,317.544861 244.781021,316.322418 244.769745,312.151093 
	C244.661942,272.319427 244.663086,232.487259 244.750000,192.655472 
	C244.759949,188.100937 243.239273,186.993454 238.715347,187.712448 
	C231.631149,188.838333 224.677826,190.330063 217.458466,192.554565 
M349.719086,236.693680 
	C345.862732,229.120209 343.082550,220.978775 337.848083,213.040207 
	C329.450623,230.873154 321.485870,247.787170 313.278259,265.216980 
	C330.179810,265.216980 346.142456,265.216980 362.998199,265.216980 
	C358.423126,255.415298 354.215424,246.400742 349.719086,236.693680 
M147.898773,248.310013 
	C146.201859,251.925293 144.481461,255.529770 142.813324,259.158264 
	C140.025879,265.221497 140.354950,265.722595 147.250031,265.737366 
	C159.404434,265.763428 171.559036,265.780029 183.713226,265.726074 
	C185.457550,265.718353 187.367584,266.282013 189.437775,264.522125 
	C181.459015,247.630447 173.441620,230.656982 164.780396,212.320465 
	C158.793945,225.089233 153.509949,236.359741 147.898773,248.310013 
z"/>
<path fill="#000000" opacity="1.000000" stroke="none" 
	d="
M105.002502,318.793762 
	C92.234818,316.492493 79.927605,304.521210 78.760689,293.014587 
	C89.615158,293.939636 96.710266,300.909424 104.473221,307.457764 
	C102.351105,301.346313 100.254929,295.225586 98.080437,289.132812 
	C97.732574,288.158142 96.797676,287.663788 95.755051,287.436676 
	C81.908966,284.420563 76.547676,273.783569 72.766441,261.761597 
	C72.375580,260.518921 72.281311,259.182983 72.053352,257.912231 
	C78.034668,256.125214 85.666145,262.625610 95.173782,277.393860 
	C94.333740,271.019165 93.402130,264.654388 92.707581,258.263885 
	C92.480103,256.170929 91.653847,254.978302 89.770210,254.111511 
	C79.371254,249.326279 75.667297,239.985168 73.893005,229.684433 
	C73.366745,226.629242 71.828651,223.225311 74.276978,219.396317 
	C84.141998,224.113602 87.153076,233.844513 92.217491,242.398117 
	C92.663124,236.023529 93.186745,229.652802 93.501549,223.271774 
	C93.583954,221.601456 91.862808,220.912109 90.707542,219.980835 
	C81.457161,212.524033 77.700455,194.873276 83.325699,183.338028 
	C92.828140,190.260834 93.102470,201.080414 95.722771,211.307770 
	C97.724976,204.654953 99.586548,198.484558 101.437164,192.310883 
	C101.985710,190.480942 101.152580,189.107239 99.969048,187.810410 
	C91.199783,178.201675 92.657753,160.475555 99.824852,149.973175 
	C106.755539,157.369141 105.751038,166.802765 106.691750,175.636597 
	C107.124588,175.758057 107.557434,175.879532 107.990273,176.001007 
	C110.772179,170.916916 113.617111,165.865524 116.286285,160.722916 
	C116.865807,159.606354 115.690048,158.568726 115.181084,157.545135 
	C109.657516,146.436493 112.985985,129.911453 122.977654,120.950005 
	C128.858994,130.390625 125.516502,139.819397 123.880859,149.785263 
	C128.098007,145.047684 132.033035,140.541275 136.073120,136.131088 
	C137.666031,134.392273 136.755600,132.784866 136.292725,131.025879 
	C133.217072,119.338379 141.134460,101.847702 151.805374,97.405495 
	C155.234192,107.448944 149.944748,115.798737 146.273743,125.980545 
	C152.206726,121.380875 157.234375,117.794128 161.856888,113.744873 
	C163.682739,112.145454 162.602478,109.282509 162.666916,106.996307 
	C162.970245,96.231186 173.915527,82.573807 185.020172,80.092468 
	C185.173874,91.608978 178.799500,99.635086 171.504929,107.792496 
	C178.029587,104.731216 184.005493,101.897079 190.011795,99.128883 
	C191.687668,98.356499 192.675201,97.274139 192.696198,95.340652 
	C192.836548,82.409958 209.867661,70.599144 220.830856,69.756958 
	C218.099838,83.103989 208.078354,89.867249 197.355942,97.436218 
	C210.148224,97.680634 221.631348,98.567024 228.063904,112.051346 
	C215.793213,112.731674 205.384399,110.803696 196.697388,103.435272 
	C193.773590,100.955269 191.630630,100.781830 188.393478,102.380676 
	C183.668549,104.714355 178.816681,106.767624 173.507294,110.280800 
	C184.464020,108.885117 193.548218,109.991684 200.594284,119.460312 
	C188.720352,123.422890 177.971603,123.104675 167.680359,117.496902 
	C165.067093,116.072906 163.340286,115.925873 161.050964,117.782753 
	C157.211853,120.896660 153.166885,123.756798 149.396759,127.460815 
	C154.007401,127.025658 158.461914,126.345627 162.935226,126.773170 
	C167.466248,127.206223 171.733444,128.264664 175.254807,132.940659 
	C165.331833,137.912003 155.490585,140.965073 144.874023,138.056686 
	C140.297348,136.802917 137.461136,137.548798 134.608337,141.112457 
	C131.913086,144.479309 128.917191,147.595749 126.263008,152.265991 
	C135.356079,147.972031 143.838577,144.824478 152.622757,149.970261 
	C152.870712,152.396957 151.238449,152.941803 150.078461,153.760422 
	C141.976044,159.478439 133.171585,163.116608 123.033142,162.278015 
	C119.741432,162.005753 117.771469,163.281036 116.239067,166.107162 
	C113.699036,170.791580 110.993248,175.383163 108.732292,181.114594 
	C116.676819,174.207321 124.703644,169.233185 136.003174,172.746414 
	C131.609543,179.531799 125.900131,183.846695 119.449333,187.237457 
	C116.971260,188.540009 114.180351,190.020187 111.518700,190.045914 
	C105.252220,190.106552 102.738174,193.428665 101.589409,198.962708 
	C100.749847,203.007217 99.418266,206.949585 98.599693,211.267517 
	C104.738754,203.361969 111.550690,196.966919 123.615219,198.093353 
	C118.292175,208.810120 111.550278,216.774323 101.204361,220.832870 
	C96.798927,222.561066 95.402191,225.159836 95.293915,229.412094 
	C95.185753,233.659943 94.737694,237.899124 94.968575,242.504440 
	C99.757736,234.151489 104.822250,226.469833 116.457970,225.634705 
	C113.694290,237.129944 108.806137,246.018738 99.841118,252.006485 
	C96.280136,254.384842 94.786140,256.838593 95.305229,260.944061 
	C95.923141,265.831238 96.302429,270.748230 98.010178,276.319183 
	C100.420914,266.159149 103.717865,257.523773 114.401947,254.118103 
	C115.717369,256.591644 115.402008,258.880219 114.905624,261.086639 
	C112.833710,270.296326 109.915688,279.099213 102.282936,285.428589 
	C100.820206,286.641541 100.411804,287.961853 101.058792,289.825958 
	C103.017815,295.470337 104.842247,301.161438 107.116112,306.862396 
	C107.838379,297.103638 109.373894,287.913330 119.717651,282.023407 
	C122.628998,293.711243 120.902306,304.011292 114.969887,313.434265 
	C112.994652,316.571686 112.401619,318.784241 114.390823,321.889832 
	C117.246880,326.348907 119.841698,330.975281 122.968552,335.508972 
	C120.908829,325.510925 121.195869,316.286835 130.165405,308.330902 
	C134.908188,319.400970 135.883835,329.747467 131.822693,340.096558 
	C130.291641,343.998199 130.560318,346.677185 133.457489,349.424530 
	C136.681091,352.481415 139.813263,355.634735 143.858749,359.602844 
	C140.686691,349.858307 138.174210,341.093719 145.138626,333.173706 
	C147.505249,333.786072 148.071747,335.474213 148.747284,336.942047 
	C152.764862,345.671509 155.750687,354.582184 153.455429,364.420807 
	C153.043167,366.187988 152.819046,368.113098 154.526611,369.509003 
	C159.109177,373.255249 163.772949,376.884369 169.894684,380.230774 
	C164.534653,371.293304 160.064163,363.128448 164.850143,353.661591 
	C166.461304,353.115112 167.173874,353.849518 167.847275,354.589905 
	C175.028030,362.485016 179.603256,371.613373 179.739456,382.396790 
	C179.776855,385.358154 180.737091,386.527802 183.044205,387.621796 
	C193.312088,392.490631 203.948364,396.261871 215.070450,398.621887 
	C216.971756,399.025360 218.881424,399.331818 220.883118,400.813110 
	C218.568344,402.635986 216.409149,401.454712 214.624588,401.057007 
	C203.551666,398.589172 192.708572,395.317413 182.602875,390.060242 
	C179.879120,388.643280 177.933853,388.797699 175.337296,390.457031 
	C165.017960,397.051422 147.971405,394.872833 138.189621,385.465302 
	C148.377686,379.297607 158.749771,381.723541 169.474762,383.424011 
	C163.766739,379.316193 158.312271,375.447052 152.926819,371.484070 
	C151.092789,370.134491 149.511215,371.000916 147.770599,371.582092 
	C135.630112,375.635773 118.810036,369.832764 112.278465,358.957062 
	C123.185776,355.374359 132.804565,359.316040 142.983078,363.400208 
	C138.158066,358.089600 133.683655,353.267853 129.342377,348.329071 
	C127.883064,346.668884 126.376366,346.878937 124.436684,347.103790 
	C111.646606,348.586426 97.486931,340.440460 92.096977,328.255157 
	C103.336121,325.235535 111.225960,332.482391 120.499397,337.196472 
	C117.000206,331.213745 113.772636,325.853180 110.715706,320.397064 
	C109.347122,317.954376 107.185394,319.240997 105.002502,318.793762 
z"/>
<path fill="#000000" opacity="1.000000" stroke="none" 
	d="
M367.188019,130.821564 
	C369.711029,129.252380 367.465485,128.012787 366.829437,126.778107 
	C363.079529,119.498917 359.417603,112.204376 359.729156,103.686340 
	C359.794067,101.911568 359.447174,99.952095 361.442902,98.858902 
	C372.449890,104.929352 379.635071,121.762466 376.211426,133.605392 
	C375.674164,135.463867 375.309631,137.043076 376.730225,138.706421 
	C380.913452,143.604584 385.003296,148.582535 389.675751,154.183899 
	C387.685486,143.544098 384.190430,133.561295 390.071411,122.781830 
	C396.134186,129.721939 399.350067,137.127701 400.192505,145.499802 
	C400.763275,151.171967 400.476135,156.856430 397.033112,161.839462 
	C395.929962,163.435989 396.369080,164.930664 397.201843,166.516098 
	C400.272949,172.362991 403.267365,178.250153 406.601532,184.726074 
	C405.557251,173.511932 405.613190,163.123856 412.556152,153.838409 
	C420.511108,163.174973 420.602203,182.138321 412.883179,191.559967 
	C410.819122,194.079285 410.337402,196.183090 411.263275,199.216522 
	C413.000854,204.909515 414.349854,210.721115 416.073944,217.297714 
	C418.358124,206.512711 419.441223,195.832642 428.613983,188.587921 
	C434.530060,199.104202 430.656708,218.048355 421.258270,225.061081 
	C417.955017,227.525833 417.134888,229.938614 417.704651,233.929932 
	C418.499115,239.495377 418.335754,245.197571 418.611969,251.520020 
	C420.682556,246.111771 422.418030,241.139236 425.330231,236.718781 
	C428.274994,232.248932 431.215302,227.833023 436.948730,226.010300 
	C439.623169,229.757126 437.658600,233.707779 436.960999,237.043289 
	C434.864899,247.065094 430.791748,256.125092 420.427948,260.540131 
	C419.051147,261.126648 417.706818,261.809601 417.412964,263.571716 
	C416.379883,269.766968 415.306763,275.955566 414.634979,282.424713 
	C421.017059,274.715546 426.591217,266.161499 437.497223,263.557617 
	C437.421539,277.001923 425.903290,291.911926 414.161560,294.169708 
	C411.148590,294.749084 410.010254,296.237366 409.109436,298.795654 
	C407.009644,304.759186 404.821259,310.700043 401.952515,316.586578 
	C409.774719,309.307831 417.394897,301.725708 428.993317,300.908966 
	C429.217590,301.740753 429.545746,302.254669 429.431641,302.636414 
	C425.794769,314.803802 412.351501,325.594269 399.948761,326.225800 
	C397.995819,326.325226 396.412750,326.610809 395.266602,328.406677 
	C391.975037,333.564148 388.588928,338.661285 385.043152,344.083069 
	C408.332733,334.180115 408.332733,334.180115 414.147858,336.630035 
	C408.468506,345.694519 400.750702,351.666046 390.458313,354.214996 
	C388.382141,354.729126 385.782837,355.618652 384.113464,354.846375 
	C377.738159,351.896881 374.432953,355.601929 370.807007,359.769623 
	C367.985260,363.012939 364.611908,365.776306 360.810760,369.393372 
	C371.372101,366.129974 381.135712,362.324860 392.455078,366.864929 
	C385.940826,373.846771 378.676605,377.403503 370.458099,379.229706 
	C364.939911,380.455872 359.534607,380.080841 354.466675,377.353668 
	C352.614197,376.356750 351.105011,376.672028 349.388306,377.796844 
	C344.123993,381.246033 338.758606,384.540924 333.535645,387.830811 
	C343.389496,387.748718 353.563782,385.529236 362.562958,391.605408 
	C362.482452,392.409332 362.572906,392.877258 362.402679,393.009460 
	C353.569916,399.867004 335.457062,402.937653 325.878052,395.676147 
	C322.887665,393.409271 320.432465,393.341919 317.219299,394.669495 
	C306.707947,399.012543 295.642578,401.326721 284.460846,403.109192 
	C282.712097,403.387970 280.835785,403.797821 278.912628,402.455933 
	C281.884552,399.355408 285.906891,400.589050 289.235321,399.958344 
	C298.755676,398.154205 307.968811,395.469421 317.077423,392.267181 
	C320.297272,391.135223 321.689240,389.311340 321.829224,385.679230 
	C322.193939,376.214996 330.884369,362.268921 338.673157,358.308838 
	C342.734833,367.882843 338.422241,375.667694 332.900940,384.490631 
	C339.433289,381.456543 344.395447,378.384277 349.098511,374.864105 
	C350.597778,373.741943 349.957092,372.159790 349.811890,370.696899 
	C348.636475,358.857330 352.193604,348.474457 359.177551,339.032501 
	C365.465210,343.189850 365.639893,351.006866 359.891174,366.118103 
	C365.567291,362.306885 369.603424,357.469330 373.885986,352.919769 
	C375.621796,351.075775 374.208740,349.122711 373.566254,347.305573 
	C369.832733,336.746033 372.040253,326.644501 375.884460,316.673401 
	C376.096710,316.122833 376.736053,315.736908 377.489197,314.946136 
	C385.294983,321.884918 384.679626,330.729462 383.191528,340.850830 
	C388.050323,335.857758 390.667664,331.070526 393.555878,326.473145 
	C394.819458,324.461792 393.591187,323.060272 392.638733,321.488190 
	C386.610168,311.538177 386.172516,300.774719 388.133209,289.690002 
	C388.206604,289.275208 388.724792,288.939056 389.549377,287.950317 
	C398.803040,294.231476 399.950867,303.580719 399.512329,314.698395 
	C403.106476,308.366516 405.102631,302.784363 407.175812,297.220917 
	C408.189880,294.499664 406.856873,292.929565 405.211578,291.085876 
	C397.392059,282.323669 394.696747,271.879425 394.873810,260.316925 
	C402.784058,260.878387 408.580658,268.791748 411.128204,282.378326 
	C413.170959,275.781616 414.321381,269.863159 414.684875,263.771942 
	C414.845795,261.074615 412.803223,260.131531 411.042572,258.879913 
	C402.706757,252.954056 395.466949,240.244965 395.217712,231.184402 
	C402.697784,230.129715 409.655151,236.392288 415.505920,250.158447 
	C415.505920,243.648239 415.625977,238.270416 415.462341,232.901230 
	C415.358826,229.503983 413.732788,227.453537 410.197632,226.084641 
	C401.077087,222.552917 390.790619,210.594299 389.190277,202.022568 
	C400.193573,201.050537 406.446320,207.910889 412.854187,216.291992 
	C411.972198,209.233612 410.156433,203.562561 408.339478,197.886795 
	C407.656982,195.754898 406.008514,195.479568 404.103516,195.102127 
	C392.395111,192.782425 383.857941,185.841873 376.197235,175.922592 
	C387.527588,172.566986 395.123352,177.776367 402.398743,184.089722 
	C401.907318,181.012878 395.916138,168.294037 394.281952,166.550629 
	C392.797638,164.967163 390.929047,165.239929 389.139954,165.341400 
	C378.310822,165.955566 369.539642,160.980942 361.096680,155.103287 
	C360.291290,154.542618 359.439301,153.920837 359.593506,152.106110 
	C369.393616,146.979736 378.186737,150.475555 386.808838,155.901459 
	C385.234772,152.366119 376.702545,141.659073 374.292206,139.662918 
	C372.563080,138.230927 371.150085,139.297272 369.641083,139.721054 
	C358.650085,142.807755 348.620789,139.693069 338.847870,134.971069 
	C338.318207,134.715149 337.989166,134.043961 337.236328,133.192307 
	C344.161591,127.281189 351.660370,126.875374 359.744385,129.310822 
	C361.950409,129.975433 363.890747,131.491714 366.686127,131.167755 
	C367.036499,130.957504 367.188019,130.821564 367.188019,130.821564 
z"/>
<path fill="#000000" opacity="1.000000" stroke="none" 
	d="
M366.960388,131.025070 
	C361.318176,127.981926 357.094849,123.133286 351.905396,119.508904 
	C349.277374,117.673447 347.328644,117.235558 344.288147,118.861496 
	C335.001495,123.827621 319.478973,124.021782 312.150757,119.721954 
	C315.362915,112.374557 324.755829,109.366531 338.559875,110.994606 
	C332.688263,107.545609 326.737488,104.248474 320.342194,101.788612 
	C318.314667,101.008766 317.321533,102.602188 316.047089,103.584557 
	C307.332794,110.301651 297.376160,112.769218 286.534912,112.182716 
	C286.045166,112.156219 285.543823,112.046082 285.083862,111.877014 
	C284.803467,111.773949 284.592072,111.483261 284.354431,111.271301 
	C286.238556,101.952263 297.324768,97.170883 315.422791,98.444473 
	C304.239197,90.901802 293.762970,83.799416 290.447052,70.641365 
	C293.019989,69.118088 294.556610,70.147743 296.007233,70.762581 
	C307.813354,75.766647 317.801727,82.465691 319.359100,96.701370 
	C319.581177,98.731270 321.116730,99.378014 322.611877,100.106483 
	C328.396149,102.924690 334.427917,105.234756 340.009705,108.674782 
	C333.716278,100.320610 327.166626,92.216606 326.947357,81.386139 
	C328.319336,80.201286 329.291901,80.591095 330.140900,81.093933 
	C339.957611,86.908165 347.462616,94.536766 349.715576,106.244705 
	C349.841095,106.896935 350.265503,107.654663 350.067413,108.181488 
	C347.449524,115.142670 353.039520,117.345192 357.037262,120.612442 
	C360.597687,123.522301 364.983215,125.628738 367.082825,130.501434 
	C367.188019,130.821564 367.036499,130.957504 366.960388,131.025070 
z"/>
</svg>